<?xml version="1.0" encoding="UTF-8" standalone="no"?>
<!-- Created with Inkscape (http://www.inkscape.org/) -->

<svg
   xmlns:dc="http://purl.org/dc/elements/1.1/"
   xmlns:cc="http://creativecommons.org/ns#"
   xmlns:rdf="http://www.w3.org/1999/02/22-rdf-syntax-ns#"
   xmlns:svg="http://www.w3.org/2000/svg"
   xmlns="http://www.w3.org/2000/svg"
   xmlns:sodipodi="http://sodipodi.sourceforge.net/DTD/sodipodi-0.dtd"
   xmlns:inkscape="http://www.inkscape.org/namespaces/inkscape"
   width="57.855556mm"
   height="57.855556mm"
   viewBox="0 0 205 205"
   id="svg2"
   version="1.1"
   inkscape:version="0.91 r13725"
   sodipodi:docname="mm elixia.svg">
  <defs
     id="defs4" />
  <sodipodi:namedview
     id="base"
     pagecolor="#ffffff"
     bordercolor="#666666"
     borderopacity="1.0"
     inkscape:pageopacity="0.0"
     inkscape:pageshadow="2"
     inkscape:zoom="1"
     inkscape:cx="182.32056"
     inkscape:cy="106.8063"
     inkscape:document-units="px"
     inkscape:current-layer="gHorLines"
     showgrid="false"
     fit-margin-top="0"
     fit-margin-left="0"
     fit-margin-right="0"
     fit-margin-bottom="0"
     inkscape:window-width="1920"
     inkscape:window-height="1017"
     inkscape:window-x="-8"
     inkscape:window-y="-8"
     inkscape:window-maximized="1"
     showguides="true" />
  <metadata
     id="metadata7">
    <rdf:RDF>
      <cc:Work
         rdf:about="">
        <dc:format>image/svg+xml</dc:format>
        <dc:type
           rdf:resource="http://purl.org/dc/dcmitype/StillImage" />
        <dc:title></dc:title>
      </cc:Work>
    </rdf:RDF>
  </metadata>
  <g
     inkscape:label="Layer 1"
     inkscape:groupmode="layer"
     id="layer1"
     transform="translate(-136.17944,-90.278221)">
    <rect
       style="fill:none;stroke:#000000;stroke-width:5;stroke-linecap:butt;stroke-linejoin:miter;stroke-miterlimit:4;stroke-dasharray:none;stroke-opacity:1"
       id="rect"
       width="200"
       height="200"
       x="138.67944"
       y="92.778221" />
    <flowRoot
       xml:space="preserve"
       id="flowRoot4686"
       style="font-style:normal;font-weight:normal;font-size:40px;line-height:125%;font-family:sans-serif;letter-spacing:0px;word-spacing:0px;fill:#000000;fill-opacity:1;stroke:none;stroke-width:1px;stroke-linecap:butt;stroke-linejoin:miter;stroke-opacity:1"><flowRegion
         id="flowRegion4688"><rect
           id="rect4690"
           width="101.86926"
           height="62.140247"
           x="388.6312"
           y="114.65572" /></flowRegion><flowPara
         id="flowPara4692"
         style="font-style:normal;font-variant:normal;font-weight:normal;font-stretch:normal;font-family:Elixia;-inkscape-font-specification:Elixia">MMmmmm</flowPara></flowRoot>    <g
       style="font-style:normal;font-weight:normal;font-size:60.708004px;line-height:125%;font-family:sans-serif;letter-spacing:0px;word-spacing:0px;fill:none;fill-opacity:1;stroke:#000000;stroke-width:4;stroke-linecap:butt;stroke-linejoin:miter;stroke-miterlimit:4;stroke-dasharray:none;stroke-opacity:1"
       id="topM"
       inkscape:label="topM">
      <path
         d="m 179.01262,120.79533 -15.02523,14.20567 0,45.75866 q 0,1.09274 -1.22933,1.63911 l -0.81956,0 q -1.36593,-0.40978 -1.36593,-1.63911 l 0,-62.28641 q 0,-1.63912 1.77571,-1.63912 1.63911,0 1.63911,1.63912 l 0,11.747 13.7959,-12.97634 q 0.54637,-0.54637 1.22933,-0.54637 0.68297,0 1.22934,0.54637 l 15.5716,14.61545 15.43501,-14.61545 q 0.54638,-0.54637 1.22934,-0.54637 0.68297,0 1.22934,0.54637 l 16.66434,15.7082 q 0.54638,0.54637 0.54638,1.36593 l 0,46.30502 q 0,1.77571 -1.63912,1.77571 -1.77571,0 -1.77571,-1.77571 l 0,-45.62206 -15.02523,-14.20567 -15.02523,14.20567 0,45.62206 q 0,1.77571 -1.63912,1.77571 -1.7757,0 -1.7757,-1.77571 l 0,-45.62206 -15.02524,-14.20567 z"
         style="font-style:normal;font-variant:normal;font-weight:normal;font-stretch:normal;font-size:136.59300232px;font-family:Elixia;-inkscape-font-specification:Elixia;fill:none;stroke:#000000;stroke-width:4;stroke-miterlimit:4;stroke-dasharray:none;stroke-opacity:1"
         id="path4747"
         inkscape:connector-curvature="0" />
    </g>
    <g
       style="font-style:normal;font-weight:normal;font-size:55.82434845px;line-height:125%;font-family:sans-serif;letter-spacing:0px;word-spacing:0px;fill:#000000;fill-opacity:1;stroke:none;stroke-width:1px;stroke-linecap:butt;stroke-linejoin:miter;stroke-opacity:1"
       id="text4698">
      <path
         d="m 264.62746,211.63865 -13.81652,13.0629 0,42.0776 q 0,1.00484 -1.13045,1.50726 l -0.75363,0 q -1.25604,-0.37682 -1.25604,-1.50726 l 0,-57.27578 q 0,-1.50726 1.63286,-1.50726 1.50726,0 1.50726,1.50726 l 0,10.80201 12.68608,-11.93246 q 0.50242,-0.50242 1.13044,-0.50242 0.62803,0 1.13045,0.50242 l 14.31894,13.43972 14.19334,-13.43972 q 0.50242,-0.50242 1.13045,-0.50242 0.62802,0 1.13044,0.50242 l 15.32378,14.44455 q 0.50242,0.50242 0.50242,1.25605 l 0,42.58003 q 0,1.63286 -1.50725,1.63286 -1.63287,0 -1.63287,-1.63286 l 0,-41.952 -13.81652,-13.0629 -13.81653,13.0629 0,41.952 q 0,1.63286 -1.50726,1.63286 -1.63286,0 -1.63286,-1.63286 l 0,-41.952 -13.81653,-13.0629 z"
         style="font-style:normal;font-variant:normal;font-weight:normal;font-stretch:normal;font-size:125.60478973px;font-family:Elixia;-inkscape-font-specification:Elixia;fill:none;stroke:#000000;stroke-width:4;stroke-linecap:butt;stroke-linejoin:miter;stroke-miterlimit:4;stroke-dasharray:none;stroke-opacity:1"
         id="path4750"
         inkscape:connector-curvature="0" />
    </g>
    <path
       style="fill:none;fill-rule:evenodd;stroke:#000000;stroke-width:4.00040007;stroke-linecap:butt;stroke-linejoin:miter;stroke-miterlimit:4;stroke-dasharray:none;stroke-opacity:1"
       d="m 304.5,151.8622 -49,0"
       id="path4764"
       inkscape:connector-curvature="0" />
    <g
       id="g4823">
      <path
         inkscape:connector-curvature="0"
         id="path4764-0"
         d="m 297.06091,166.72801 -35.3415,0"
         style="fill:none;fill-rule:evenodd;stroke:#000000;stroke-width:3.3974092;stroke-linecap:butt;stroke-linejoin:miter;stroke-miterlimit:4;stroke-dasharray:none;stroke-opacity:1" />
      <path
         inkscape:connector-curvature="0"
         id="path4764-0-1"
         d="m 297.86514,136.46214 -35.3415,0"
         style="fill:none;fill-rule:evenodd;stroke:#000000;stroke-width:3.3974092;stroke-linecap:butt;stroke-linejoin:miter;stroke-miterlimit:4;stroke-dasharray:none;stroke-opacity:1" />
    </g>
    <g
       id="gHorLines">
      <path
         inkscape:connector-curvature="0"
         id="path4764-7"
         d="m 195.17018,265.47289 0,-49"
         style="fill:none;fill-rule:evenodd;stroke:#000000;stroke-width:4.00040007;stroke-linecap:butt;stroke-linejoin:miter;stroke-miterlimit:4;stroke-dasharray:none;stroke-opacity:1" />
      <path
         inkscape:connector-curvature="0"
         id="path4764-0-16"
         d="m 180.12136,259.46071 0,-35.3415"
         style="fill:none;fill-rule:evenodd;stroke:#000000;stroke-width:3.3974092;stroke-linecap:butt;stroke-linejoin:miter;stroke-miterlimit:4;stroke-dasharray:none;stroke-opacity:1" />
      <path
         inkscape:connector-curvature="0"
         id="path4764-0-1-6"
         d="m 209.80356,258.8533 0,-35.3415"
         style="fill:none;fill-rule:evenodd;stroke:#000000;stroke-width:3.3974092;stroke-linecap:butt;stroke-linejoin:miter;stroke-miterlimit:4;stroke-dasharray:none;stroke-opacity:1" />
    </g>
  </g>
</svg>
